<svg width="23" height="21" viewBox="0 0 23 21" fill="none" xmlns="http://www.w3.org/2000/svg">
<path d="M4.53037 15.6242C5.82566 15.6242 6.87851 16.8305 6.87851 18.3134C6.87851 19.7963 5.82566 21 4.53037 21C3.23507 21 2.18223 19.7937 2.18223 18.3134C2.18223 16.8305 3.23507 15.6242 4.53037 15.6242ZM4.53037 19.7399C5.21281 19.7399 5.76729 19.1022 5.76729 18.3134C5.76729 17.5246 5.21281 16.8868 4.53037 16.8868C3.84793 16.8868 3.29344 17.5246 3.29344 18.3134C3.29344 19.0997 3.84793 19.7399 4.53037 19.7399ZM13.4246 15.6242C14.7199 15.6242 15.7727 16.8305 15.7727 18.3134C15.7727 19.7963 14.7199 21 13.4246 21C12.1293 21 11.0764 19.7937 11.0764 18.3134C11.0764 16.8305 12.1293 15.6242 13.4246 15.6242ZM13.4246 19.7399C14.107 19.7399 14.6615 19.1022 14.6615 18.3134C14.6615 17.5246 14.107 16.8868 13.4246 16.8868C12.7421 16.8868 12.1876 17.5246 12.1876 18.3134C12.1876 19.0997 12.7421 19.7399 13.4246 19.7399ZM0.388569 2.85588C0.797136 2.18487 1.4706 1.78533 2.18896 1.78533H4.87832C5.24648 1.78533 5.54505 2.1234 5.54505 2.54342C5.54505 2.96088 5.24648 3.30151 4.87832 3.30151H2.18896C1.90386 3.30151 1.64794 3.45518 1.48631 3.71898C1.32468 3.98533 1.28876 4.31059 1.38978 4.6128L3.75364 11.7071C3.90405 12.1604 4.29241 12.4652 4.71894 12.4652H12.5C12.5 12.4652 14 12 14.0711 11.3742L18.1084 0.560885C18.187 0.230501 18.4519 0 18.7527 0H22.3333C22.7014 0 23 0.338067 23 0.758091C23 1.17555 22.7014 1.51362 22.3333 1.51362H19.2623L15.3574 11.7634C15.0476 13.0645 12.5 14 11.8162 13.9763H3.71669C2.74017 13.9763 2.84895 13.2796 2.50324 12.2398L0.139387 5.14296C-0.11204 4.3823 -0.0199986 3.52689 0.388569 2.85588Z" fill="white"/>
</svg>
