<svg width="74" height="27" viewBox="0 0 74 27" fill="none" xmlns="http://www.w3.org/2000/svg">
<path fill-rule="evenodd" clip-rule="evenodd" d="M52.5955 20.6454C47.5047 24.3977 40.1259 26.3997 33.7729 26.3997C24.865 26.3997 16.8455 23.105 10.7785 17.6252C10.3019 17.1943 10.729 16.6071 11.301 16.9426C17.8485 20.7521 25.9442 23.044 34.3068 23.044C39.9467 23.044 46.151 21.8771 51.8557 19.4556C52.7175 19.0895 53.4383 20.02 52.5955 20.6454" fill="#FF9900"/>
<path fill-rule="evenodd" clip-rule="evenodd" d="M54.7119 18.2239C54.0636 17.3926 50.4105 17.8311 48.7707 18.0256C48.2712 18.0866 48.1949 17.6519 48.6449 17.3392C51.5545 15.2915 56.3287 15.8825 56.8855 16.5689C57.4422 17.2591 56.7406 22.0449 54.0064 24.329C53.587 24.6799 53.1866 24.493 53.3734 24.0278C53.9874 22.4948 55.364 19.059 54.7119 18.2239" fill="#FF9900"/>
<path fill-rule="evenodd" clip-rule="evenodd" d="M48.8851 2.88289V0.892336C48.8851 0.591083 49.1139 0.388977 49.3885 0.388977H58.3002C58.5862 0.388977 58.815 0.594897 58.815 0.892336V2.59689C58.8112 2.88289 58.571 3.2566 58.1439 3.84767L53.5259 10.4409C55.2419 10.399 57.0533 10.6545 58.6091 11.5315C58.9599 11.7298 59.0552 12.0196 59.0819 12.3056V14.4297C59.0819 14.7195 58.7616 15.0589 58.426 14.8834C55.6843 13.4458 52.0425 13.2895 49.0109 14.8987C48.7021 15.0665 48.3779 14.7309 48.3779 14.4411V12.4238C48.3779 12.0997 48.3817 11.5468 48.7059 11.0549L54.056 3.38244H49.3999C49.1139 3.38244 48.8851 3.18034 48.8851 2.88289" fill="white"/>
<path fill-rule="evenodd" clip-rule="evenodd" d="M6.10133 0C10.1244 0 12.3018 3.45488 12.3018 7.84783C12.3018 12.0921 9.89559 15.4592 6.10133 15.4592C2.15072 15.4592 0 12.0044 0 7.69911C0 3.36717 2.17741 0 6.10133 0ZM6.12421 2.84093C4.12602 2.84093 4.00018 5.56365 4.00018 7.26058C4.00018 8.96133 3.97349 12.5916 6.10133 12.5916C8.20247 12.5916 8.30162 9.66298 8.30162 7.87834C8.30162 6.70383 8.25205 5.30053 7.8974 4.18704C7.59234 3.21845 6.98602 2.84093 6.12421 2.84093Z" fill="white"/>
<path fill-rule="evenodd" clip-rule="evenodd" d="M41.7809 8.65629C41.7809 9.71258 41.8076 10.5935 41.2737 11.5315C40.8428 12.2942 40.1564 12.7632 39.3976 12.7632C38.3565 12.7632 37.7464 11.9701 37.7464 10.7994C37.7464 8.4885 39.8171 8.06904 41.7809 8.06904V8.65629V8.65629ZM44.5151 15.2648C44.3359 15.4249 44.0765 15.4364 43.8744 15.3296C42.9745 14.5822 42.8105 14.2352 42.3186 13.5221C40.8314 15.0398 39.7751 15.4936 37.8494 15.4936C35.5652 15.4936 33.792 14.0865 33.792 11.2684C33.792 9.06813 34.9818 7.56949 36.6825 6.83733C38.1544 6.18906 40.2098 6.07467 41.7809 5.89544V5.54461C41.7809 4.90016 41.8305 4.13749 41.4492 3.58075C41.1212 3.0812 40.4882 2.87528 39.9276 2.87528C38.8942 2.87528 37.9752 3.40533 37.7502 4.50357C37.7045 4.74763 37.5252 4.98787 37.2774 4.99931L34.65 4.71712C34.4288 4.66755 34.181 4.48832 34.2458 4.14894C34.8483 0.960992 37.7312 3.05176e-05 40.309 3.05176e-05C41.6284 3.05176e-05 43.352 0.350858 44.393 1.34995C45.7125 2.58165 45.5866 4.2252 45.5866 6.01365V10.2388C45.5866 11.5087 46.1129 12.0654 46.6086 12.7518C46.7802 12.9959 46.8183 13.2895 46.5971 13.4725C46.0442 13.9339 45.0604 14.7919 44.5189 15.2724L44.5151 15.2648" fill="white"/>
<path fill-rule="evenodd" clip-rule="evenodd" d="M68.6982 8.65626C68.6982 9.71255 68.7249 10.5934 68.191 11.5315C67.7601 12.2942 67.0775 12.7632 66.3149 12.7632C65.2738 12.7632 64.6675 11.97 64.6675 10.7993C64.6675 8.48847 66.7382 8.06901 68.6982 8.06901V8.65626ZM71.4324 15.2648C71.2531 15.4249 70.9938 15.4364 70.7917 15.3296C69.8918 14.5822 69.7316 14.2352 69.2359 13.5221C67.7487 15.0398 66.6962 15.4936 64.7667 15.4936C62.4863 15.4936 60.7093 14.0864 60.7093 11.2684C60.7093 9.0681 61.9029 7.56946 63.5998 6.8373C65.0717 6.18903 67.1271 6.07464 68.6982 5.89541V5.54458C68.6982 4.90013 68.7478 4.13746 68.3703 3.58072C68.0385 3.08117 67.4055 2.87525 66.8487 2.87525C65.8153 2.87525 64.8925 3.4053 64.6675 4.50354C64.6218 4.7476 64.4425 4.98784 64.1985 4.99928L61.5673 4.71709C61.3461 4.66752 61.1021 4.48829 61.1631 4.1489C61.7694 0.960962 64.6485 0 67.2263 0C68.5457 0 70.2693 0.350827 71.3103 1.34992C72.6298 2.58162 72.5039 4.22517 72.5039 6.01362V10.2388C72.5039 11.5086 73.0302 12.0654 73.5259 12.7518C73.7013 12.9958 73.7394 13.2895 73.5183 13.4725C72.9653 13.9339 71.9815 14.7919 71.44 15.2724L71.4324 15.2648Z" fill="white"/>
<path fill-rule="evenodd" clip-rule="evenodd" d="M17.1245 15.1694H14.4132C14.1539 15.1504 13.948 14.9559 13.929 14.708V0.793175C13.929 0.514802 14.1616 0.293627 14.4514 0.293627H16.9796C17.2427 0.305059 17.4525 0.507173 17.4715 0.758852V2.57781H17.5211C18.1808 0.819866 19.4202 0 21.0904 0C22.7873 0 23.8474 0.819866 24.6101 2.57781C25.266 0.819866 26.757 0 28.3548 0C29.4912 0 30.7343 0.469039 31.4932 1.52152C32.3512 2.69221 32.1757 4.39295 32.1757 5.88397L32.1719 14.6661C32.1719 14.9444 31.9393 15.1694 31.6495 15.1694H28.942C28.6713 15.1504 28.4539 14.933 28.4539 14.6661V7.29109C28.4539 6.70383 28.5073 5.23952 28.3777 4.68277C28.1756 3.74851 27.5692 3.48538 26.7837 3.48538C26.1278 3.48538 25.4414 3.92392 25.163 4.62557C24.8847 5.32722 24.9113 6.50173 24.9113 7.29109V14.6661C24.9113 14.9444 24.6787 15.1694 24.3889 15.1694H21.6815C21.4069 15.1504 21.1934 14.933 21.1934 14.6661L21.1895 7.29109C21.1895 5.73906 21.445 3.45488 19.5193 3.45488C17.5707 3.45488 17.647 5.68186 17.647 7.29109V14.6661C17.647 14.9444 17.4143 15.1694 17.1245 15.1694" fill="white"/>
</svg>
