<svg width="19" height="22" viewBox="0 0 19 22" fill="none" xmlns="http://www.w3.org/2000/svg">
<path d="M8.14211 0C5.9827 2.38296e-06 3.91173 0.857822 2.38479 2.38475C0.85785 3.91168 1.59803e-05 5.98263 0 8.14204C-1.12143e-06 10.3015 0.857825 12.3724 2.38477 13.8994C3.91171 15.4263 5.98269 16.2841 8.14211 16.2841C10.3015 16.2841 12.3725 15.4263 13.8995 13.8994C15.4264 12.3724 16.2842 10.3015 16.2842 8.14204C16.2842 5.98263 15.4264 3.91168 13.8994 2.38475C12.3725 0.857822 10.3015 2.38296e-06 8.14211 0ZM8.14211 1.41523C9.04415 1.41523 9.93735 1.58922 10.7707 1.92727C11.6041 2.26533 12.3613 2.76082 12.9991 3.38546C13.637 4.0101 14.1429 4.75166 14.4881 5.5678C14.8333 6.38393 15.011 7.25866 15.011 8.14204C15.011 9.02542 14.8333 9.90015 14.4881 10.7163C14.1429 11.5324 13.637 12.274 12.9991 12.8986C12.3613 13.5233 11.6041 14.0188 10.7707 14.3568C9.93735 14.6949 9.04415 14.8689 8.14211 14.8688C6.32038 14.8688 4.57327 14.1601 3.28512 12.8986C1.99696 11.6371 1.27328 9.9261 1.27328 8.14204C1.27328 6.35799 1.99696 4.64701 3.28512 3.38548C4.57327 2.12396 6.32038 1.41524 8.14211 1.41523Z" fill="black"/>
<path d="M17.8522 18.3268L14.1745 14.0634C13.5406 13.3284 12.767 13.0728 12.4466 13.4923C12.1263 13.9119 12.3805 14.8477 13.0144 15.5827L16.692 19.8461C17.326 20.5811 18.0996 20.8367 18.42 20.4172C18.7403 19.9976 18.4861 19.0618 17.8522 18.3268Z" fill="black"/>
</svg>
