<svg width="233" height="84" viewBox="0 0 233 84" fill="none" xmlns="http://www.w3.org/2000/svg">
<path fill-rule="evenodd" clip-rule="evenodd" d="M166.093 65.1968C150.017 77.0464 126.715 83.3686 106.653 83.3686C78.5219 83.3686 53.1971 72.9641 34.0378 55.6593C32.5325 54.2986 33.8813 52.4441 35.6876 53.5038C56.3642 65.534 81.9299 72.7714 108.339 72.7714C126.149 72.7714 145.742 69.0865 163.757 61.4396C166.479 60.2836 168.755 63.2219 166.093 65.1968" fill="#FF9900"/>
<path fill-rule="evenodd" clip-rule="evenodd" d="M172.777 57.55C170.729 54.9248 159.193 56.3096 154.015 56.9238C152.437 57.1165 152.196 55.7436 153.617 54.7562C162.806 48.2895 177.883 50.156 179.641 52.3236C181.399 54.5033 179.183 69.6163 170.549 76.8296C169.224 77.9375 167.96 77.3475 168.55 75.8783C170.489 71.0373 174.836 60.1872 172.777 57.55" fill="#FF9900"/>
<path fill-rule="evenodd" clip-rule="evenodd" d="M154.376 9.10397V2.81791C154.376 1.86657 155.099 1.22833 155.966 1.22833H184.108C185.012 1.22833 185.734 1.87862 185.734 2.81791V8.2008C185.722 9.10397 184.963 10.2841 183.615 12.1507L169.031 32.9717C174.45 32.8393 180.171 33.6461 185.084 36.4158C186.192 37.042 186.493 37.9572 186.577 38.8604V45.5679C186.577 46.4831 185.565 47.5549 184.506 47.001C175.847 42.461 164.347 41.9673 154.773 47.0491C153.798 47.579 152.774 46.5193 152.774 45.6041V39.2337C152.774 38.2101 152.786 36.464 153.81 34.9105L170.705 10.6815H156.002C155.099 10.6815 154.376 10.0433 154.376 9.10397" fill="black"/>
<path fill-rule="evenodd" clip-rule="evenodd" d="M19.2676 0C31.9722 0 38.8483 10.9103 38.8483 24.783C38.8483 38.186 31.2497 48.8193 19.2676 48.8193C6.79183 48.8193 0 37.909 0 24.3133C0 10.6333 6.87612 0 19.2676 0ZM19.3399 8.97149C13.0297 8.97149 12.6323 17.5697 12.6323 22.9285C12.6323 28.2993 12.548 39.7635 19.2676 39.7635C25.9029 39.7635 26.216 30.5151 26.216 24.8793C26.216 21.1703 26.0595 16.7387 24.9395 13.2224C23.9761 10.1637 22.0614 8.97149 19.3399 8.97149Z" fill="black"/>
<path fill-rule="evenodd" clip-rule="evenodd" d="M131.942 27.336C131.942 30.6717 132.026 33.4535 130.34 36.4159C128.979 38.8243 126.812 40.3055 124.415 40.3055C121.128 40.3055 119.201 37.8007 119.201 34.1038C119.201 26.8062 125.74 25.4815 131.942 25.4815V27.336V27.336ZM140.576 48.2053C140.01 48.711 139.191 48.7472 138.553 48.41C135.711 46.0497 135.193 44.9539 133.64 42.702C128.943 47.4948 125.607 48.9278 119.526 48.9278C112.313 48.9278 106.713 44.4842 106.713 35.585C106.713 28.6366 110.47 23.904 115.841 21.5919C120.489 19.5447 126.98 19.1834 131.942 18.6174V17.5095C131.942 15.4744 132.098 13.0659 130.894 11.3078C129.858 9.73024 127.859 9.07996 126.089 9.07996C122.826 9.07996 119.923 10.7538 119.213 14.222C119.068 14.9927 118.503 15.7514 117.72 15.7875L109.423 14.8964C108.724 14.7398 107.941 14.1738 108.146 13.1021C110.049 3.03475 119.153 9.15527e-05 127.293 9.15527e-05C131.46 9.15527e-05 136.903 1.10798 140.191 4.26305C144.357 8.1527 143.96 13.3429 143.96 18.9907V32.3336C143.96 36.3436 145.622 38.1018 147.187 40.2694C147.729 41.0401 147.85 41.9674 147.151 42.5454C145.405 44.0025 142.298 46.712 140.588 48.2293L140.576 48.2052" fill="black"/>
<path fill-rule="evenodd" clip-rule="evenodd" d="M216.945 27.3359C216.945 30.6716 217.029 33.4534 215.343 36.4158C213.982 38.8243 211.827 40.3054 209.418 40.3054C206.131 40.3054 204.216 37.8007 204.216 34.1037C204.216 26.8061 210.755 25.4814 216.945 25.4814V27.3359ZM225.579 48.2052C225.013 48.7109 224.194 48.7471 223.556 48.4099C220.714 46.0496 220.208 44.9538 218.643 42.7019C213.946 47.4947 210.622 48.9277 204.529 48.9277C197.328 48.9277 191.716 44.4841 191.716 35.5849C191.716 28.6365 195.485 23.9039 200.844 21.5918C205.492 19.5446 211.983 19.1833 216.945 18.6173V17.5095C216.945 15.4743 217.101 13.0658 215.909 11.3077C214.861 9.73015 212.862 9.07986 211.104 9.07986C207.841 9.07986 204.926 10.7537 204.216 14.2219C204.071 14.9926 203.505 15.7513 202.735 15.7874L194.426 14.8963C193.727 14.7397 192.956 14.1737 193.149 13.102C195.064 3.03466 204.156 0 212.296 0C216.463 0 221.906 1.10789 225.194 4.26296C229.36 8.15261 228.963 13.3428 228.963 18.9906V32.3335C228.963 36.3435 230.625 38.1017 232.19 40.2693C232.744 41.04 232.864 41.9673 232.166 42.5453C230.42 44.0024 227.313 46.7119 225.603 48.2293L225.579 48.2052Z" fill="black"/>
<path fill-rule="evenodd" clip-rule="evenodd" d="M54.078 47.9041H45.5159C44.6971 47.8439 44.0468 47.2297 43.9866 46.447V2.5048C43.9866 1.62571 44.7212 0.927256 45.6364 0.927256H53.6204C54.4513 0.963359 55.1136 1.60162 55.1738 2.39641V8.14057H55.3304C57.4137 2.58909 61.3274 0 66.6019 0C71.9607 0 75.3085 2.58909 77.7169 8.14057C79.7882 2.58909 84.4967 0 89.5424 0C93.131 0 97.0568 1.4812 99.4532 4.80486C102.163 8.50183 101.609 13.8727 101.609 18.5812L101.597 46.3145C101.597 47.1936 100.862 47.9041 99.947 47.9041H91.397C90.542 47.8439 89.8556 47.1575 89.8556 46.3145V23.0248C89.8556 21.1703 90.0241 16.5461 89.6147 14.7879C88.9765 11.8375 87.0617 11.0066 84.581 11.0066C82.5098 11.0066 80.3422 12.3915 79.4631 14.6073C78.584 16.823 78.6683 20.532 78.6683 23.0248V46.3145C78.6683 47.1936 77.9337 47.9041 77.0185 47.9041H68.4685C67.6015 47.8439 66.9271 47.1575 66.9271 46.3145L66.915 23.0248C66.915 18.1236 67.7219 10.9103 61.6405 10.9103C55.4869 10.9103 55.7278 17.943 55.7278 23.0248V46.3145C55.7278 47.1936 54.9932 47.9041 54.078 47.9041" fill="black"/>
</svg>
